# xmcd CD database file
# Copyright (C) 1993-1996 Ti Kan
#
# Track frame offsets:
#	150
#	15720
#	34907
#	48827
#	76422
#	93502
#	112935
#	130865
#	148845
#	160970
#	178597
#	207117
#	223812
#	234942
#
# Disc length: 3354 seconds
#
# Revision: 1
# Processed by: cddbd v1.4b41PL1 Copyright (c) Steve Scherf et al.
# Submitted via: xmcd 2.0
#
DISCID=bb0d180e
DTITLE=B.B. and the blues shacks - Reality show
DYEAR=1900
DGENRE=
TTITLE0=Stop my baby
TTITLE1=I can't stop watchin'
TTITLE2=Radio Esperanza
TTITLE3=The last shirt (... got no pokets)
TTITLE4=It takes time
TTITLE5=I ain't Lyin'
TTITLE6=Big Bad Raider
TTITLE7=Should be mine
TTITLE8=Weather girl
TTITLE9=The mean one
TTITLE10=Sweet temptation blues
TTITLE11=Letter from my baby
TTITLE12=Put a thang on it
TTITLE13=Reality show
EXTD=
EXTT0=
EXTT1=
EXTT2=
EXTT3=
EXTT4=
EXTT5=
EXTT6=
EXTT7=
EXTT8=
EXTT9=
EXTT10=
EXTT11=
EXTT12=
EXTT13=
PLAYORDER=
